<?xml version="1.0" encoding="utf-8"?>
<!-- Generator: Adobe Illustrator 27.5.0, SVG Export Plug-In . SVG Version: 6.00 Build 0)  -->
<svg version="1.1" xmlns="http://www.w3.org/2000/svg" xmlns:xlink="http://www.w3.org/1999/xlink" x="0px" y="0px"
	 viewBox="0 0 500 500" style="enable-background:new 0 0 500 500;" xml:space="preserve">
<g id="Background_Complete">
	<g>
		<rect y="382.398" style="fill:#EBEBEB;" width="500" height="0.25"/>
		<rect x="416.779" y="398.494" style="fill:#EBEBEB;" width="33.122" height="0.25"/>
		<rect x="322.527" y="401.208" style="fill:#EBEBEB;" width="8.693" height="0.25"/>
		<rect x="396.586" y="389.208" style="fill:#EBEBEB;" width="19.192" height="0.25"/>
		<rect x="52.459" y="390.888" style="fill:#EBEBEB;" width="43.193" height="0.25"/>
		<rect x="104.556" y="390.888" style="fill:#EBEBEB;" width="6.333" height="0.25"/>
		<rect x="131.471" y="395.111" style="fill:#EBEBEB;" width="93.676" height="0.25"/>
		<path style="fill:#EBEBEB;" d="M237.014,337.8H43.915c-3.147,0-5.708-2.561-5.708-5.708V60.66c0-3.147,2.561-5.708,5.708-5.708
			h193.099c3.146,0,5.707,2.561,5.707,5.708v271.432C242.721,335.239,240.16,337.8,237.014,337.8z M43.915,55.203
			c-3.01,0-5.458,2.448-5.458,5.458v271.432c0,3.01,2.448,5.458,5.458,5.458h193.099c3.009,0,5.457-2.448,5.457-5.458V60.66
			c0-3.009-2.448-5.458-5.457-5.458H43.915z"/>
		<path style="fill:#EBEBEB;" d="M453.31,337.8H260.212c-3.147,0-5.707-2.561-5.707-5.708V60.66c0-3.147,2.561-5.708,5.707-5.708
			H453.31c3.148,0,5.708,2.561,5.708,5.708v271.432C459.019,335.239,456.458,337.8,453.31,337.8z M260.212,55.203
			c-3.009,0-5.457,2.448-5.457,5.458v271.432c0,3.01,2.448,5.458,5.457,5.458H453.31c3.01,0,5.458-2.448,5.458-5.458V60.66
			c0-3.009-2.448-5.458-5.458-5.458H260.212z"/>
	</g>
	<g>
		<g>
			<g>
				<g>
					
						<rect x="218.41" y="72.243" transform="matrix(-1 -1.224647e-16 1.224647e-16 -1 630.8246 294.8473)" style="fill:#E6E6E6;" width="194.004" height="150.36"/>
					
						<rect x="214.37" y="72.243" transform="matrix(-1 -1.224647e-16 1.224647e-16 -1 622.7436 294.8473)" style="fill:#F5F5F5;" width="194.004" height="150.36"/>
					
						<rect x="205.013" y="222.604" transform="matrix(-1 -1.224647e-16 1.224647e-16 -1 617.4271 453.9114)" style="fill:#E6E6E6;" width="207.402" height="8.704"/>
					
						<rect x="200.464" y="222.604" transform="matrix(-1 -1.224647e-16 1.224647e-16 -1 599.3846 453.9114)" style="fill:#F5F5F5;" width="198.457" height="8.704"/>
					
						<rect x="244.013" y="57.674" transform="matrix(-1.836970e-16 1 -1 -1.836970e-16 458.7956 -163.9482)" style="fill:#FAFAFA;" width="134.717" height="179.499"/>
					<polygon style="fill:#FFFFFF;" points="288.312,214.782 338.577,80.065 287.321,80.065 237.056,214.782 					"/>
					<polygon style="fill:#FFFFFF;" points="325.367,214.782 375.632,80.065 347.393,80.065 297.128,214.782 					"/>
					
						<rect x="244.013" y="143.383" transform="matrix(-1.836970e-16 1 -1 -1.836970e-16 458.7956 -163.9482)" style="fill:#F5F5F5;" width="134.717" height="8.081"/>
					
						<rect x="155.791" y="145.896" transform="matrix(-1.836970e-16 1 -1 -1.836970e-16 370.5732 -75.7258)" style="fill:#E6E6E6;" width="134.717" height="3.055"/>
					
						<rect x="249.581" y="145.896" transform="matrix(-1.836970e-16 1 -1 -1.836970e-16 464.3633 -169.5159)" style="fill:#E6E6E6;" width="134.717" height="3.055"/>
				</g>
			</g>
		</g>
		<g>
			
				<rect x="90.238" y="72.243" transform="matrix(-1 -1.224647e-16 1.224647e-16 -1 256.4092 300.5768)" style="fill:#E6E6E6;" width="75.933" height="156.09"/>
			
				<rect x="79.521" y="72.243" transform="matrix(-1 -1.224647e-16 1.224647e-16 -1 242.8449 300.5768)" style="fill:#F0F0F0;" width="83.802" height="156.09"/>
			
				<rect x="56.96" y="121.969" transform="matrix(-1.836970e-16 1 -1 -1.836970e-16 271.7111 28.8659)" style="fill:#FFFFFF;" width="128.926" height="56.638"/>
			<path style="fill:#F5F5F5;" d="M136.587,179.4v-58.222c0-2.987-2.421-5.408-5.408-5.408h-19.513
				c-2.987,0-5.408,2.421-5.408,5.408V179.4c0,2.987,2.421,5.408,5.408,5.408h19.513C134.166,184.807,136.587,182.386,136.587,179.4
				z"/>
		</g>
		<g>
			<g>
				<path style="fill:#F5F5F5;" d="M80.284,365.333h-6.43c-6.6,0-12-5.4-12-12v-82.444c0-6.6,5.4-12,12-12h6.43c6.6,0,12,5.4,12,12
					v82.444C92.284,359.933,86.884,365.333,80.284,365.333z"/>
				<path style="fill:#EBEBEB;" d="M86.772,361.778h-1.985c-5.11,0-9.29-4.181-9.29-9.29v-80.753c0-5.11,4.18-9.29,9.29-9.29h1.985
					c5.11,0,9.29,4.181,9.29,9.29v80.753C96.062,357.597,91.882,361.778,86.772,361.778z"/>
			</g>
			<g>
				<path style="fill:#F5F5F5;" d="M102.386,365.333h-6.43c-6.6,0-12-5.4-12-12v-82.444c0-6.6,5.4-12,12-12h6.43c6.6,0,12,5.4,12,12
					v82.444C114.386,359.933,108.987,365.333,102.386,365.333z"/>
				<path style="fill:#EBEBEB;" d="M108.874,361.778h-1.985c-5.109,0-9.29-4.181-9.29-9.29v-80.753c0-5.11,4.181-9.29,9.29-9.29
					h1.985c5.11,0,9.29,4.181,9.29,9.29v80.753C118.164,357.597,113.984,361.778,108.874,361.778z"/>
			</g>
			<g>
				<path style="fill:#F5F5F5;" d="M124.489,365.333h-6.43c-6.6,0-12-5.4-12-12v-82.444c0-6.6,5.4-12,12-12h6.43c6.6,0,12,5.4,12,12
					v82.444C136.489,359.933,131.089,365.333,124.489,365.333z"/>
				<path style="fill:#EBEBEB;" d="M130.976,361.778h-1.985c-5.11,0-9.29-4.181-9.29-9.29v-80.753c0-5.11,4.181-9.29,9.29-9.29
					h1.985c5.11,0,9.29,4.181,9.29,9.29v80.753C140.266,357.597,136.086,361.778,130.976,361.778z"/>
			</g>
			<g>
				<path style="fill:#F5F5F5;" d="M146.591,365.333h-6.43c-6.6,0-12-5.4-12-12v-82.444c0-6.6,5.4-12,12-12h6.43c6.6,0,12,5.4,12,12
					v82.444C158.591,359.933,153.191,365.333,146.591,365.333z"/>
				<path style="fill:#EBEBEB;" d="M153.079,361.778h-1.985c-5.11,0-9.29-4.181-9.29-9.29v-80.753c0-5.11,4.181-9.29,9.29-9.29
					h1.985c5.11,0,9.29,4.181,9.29,9.29v80.753C162.369,357.597,158.188,361.778,153.079,361.778z"/>
			</g>
			<g>
				<path style="fill:#F5F5F5;" d="M168.693,365.333h-6.43c-6.6,0-12-5.4-12-12v-82.444c0-6.6,5.4-12,12-12h6.43c6.6,0,12,5.4,12,12
					v82.444C180.693,359.933,175.293,365.333,168.693,365.333z"/>
				<path style="fill:#EBEBEB;" d="M175.181,361.778h-1.985c-5.11,0-9.29-4.181-9.29-9.29v-80.753c0-5.11,4.181-9.29,9.29-9.29
					h1.985c5.11,0,9.29,4.181,9.29,9.29v80.753C184.471,357.597,180.29,361.778,175.181,361.778z"/>
			</g>
			<g>
				<path style="fill:#F5F5F5;" d="M190.795,365.333h-6.43c-6.6,0-12-5.4-12-12v-82.444c0-6.6,5.4-12,12-12h6.43c6.6,0,12,5.4,12,12
					v82.444C202.795,359.933,197.395,365.333,190.795,365.333z"/>
				<path style="fill:#EBEBEB;" d="M197.283,361.778h-1.985c-5.11,0-9.29-4.181-9.29-9.29v-80.753c0-5.11,4.181-9.29,9.29-9.29
					h1.985c5.11,0,9.29,4.181,9.29,9.29v80.753C206.573,357.597,202.393,361.778,197.283,361.778z"/>
			</g>
			<g>
				<path style="fill:#F5F5F5;" d="M212.898,365.333h-6.43c-6.6,0-12-5.4-12-12v-82.444c0-6.6,5.4-12,12-12h6.43c6.6,0,12,5.4,12,12
					v82.444C224.898,359.933,219.497,365.333,212.898,365.333z"/>
			</g>
			<path style="fill:#F5F5F5;" d="M226.938,353.5h-26.479c-1.1,0-2-0.9-2-2l0,0c0-1.1,0.9-2,2-2h26.479c1.1,0,2,0.9,2,2l0,0
				C228.938,352.6,228.038,353.5,226.938,353.5z"/>
			<path style="fill:#F5F5F5;" d="M226.938,277.333h-26.479c-1.1,0-2-0.9-2-2l0,0c0-1.1,0.9-2,2-2h26.479c1.1,0,2,0.9,2,2l0,0
				C228.938,276.433,228.038,277.333,226.938,277.333z"/>
		</g>
		<g>
			<path style="fill:#EBEBEB;" d="M299.324,297.064h74.111c3.99,0,7.224-3.234,7.224-7.224l0,0c0-3.99-3.234-7.224-7.224-7.224
				h-74.111c-3.99,0-7.224,3.234-7.224,7.224l0,0C292.1,293.829,295.335,297.064,299.324,297.064z"/>
			<g>
				<path style="fill:#E0E0E0;" d="M337.972,258.077L337.972,258.077c-5.696-1.19-9.349-6.773-8.159-12.469l10.514-50.32
					c1.19-5.696,6.772-9.349,12.469-8.159l0,0c5.696,1.19,9.349,6.772,8.159,12.469l-10.514,50.32
					C349.25,255.615,343.668,259.267,337.972,258.077z"/>
				<path style="fill:#E0E0E0;" d="M331.642,256.978L331.642,256.978c-4.921,0.744-9.513-2.641-10.258-7.562l-6.576-43.471
					c-0.744-4.921,2.641-9.513,7.562-10.258l0,0c4.921-0.744,9.513,2.641,10.258,7.562l6.576,43.471
					C339.949,251.641,336.563,256.234,331.642,256.978z"/>
				<path style="fill:#E0E0E0;" d="M344.425,208.63L344.425,208.63c-1.497,0.671-3.253,0.001-3.924-1.496l-5.923-13.222
					c-0.671-1.497-0.001-3.253,1.496-3.924l0,0c1.497-0.671,3.253-0.001,3.924,1.496l5.923,13.221
					C346.592,206.203,345.922,207.96,344.425,208.63z"/>
				<path style="fill:#E0E0E0;" d="M362.344,209.902L362.344,209.902c1.042,1.266,0.861,3.137-0.406,4.18l-11.185,9.207
					c-1.266,1.042-3.138,0.861-4.18-0.406l0,0c-1.042-1.266-0.861-3.137,0.405-4.18l11.186-9.207
					C359.43,208.455,361.302,208.636,362.344,209.902z"/>
				<path style="fill:#E0E0E0;" d="M330.257,193.972L330.257,193.972c0.857,0.377,1.247,1.377,0.87,2.234l-3.328,7.572
					c-0.377,0.857-1.377,1.247-2.234,0.87l0,0c-0.857-0.377-1.246-1.377-0.87-2.234l3.329-7.572
					C328.399,193.984,329.4,193.595,330.257,193.972z"/>
				<path style="fill:#E0E0E0;" d="M312.441,209.25L312.441,209.25c0.681-0.643,1.754-0.613,2.397,0.068l5.68,6.012
					c0.643,0.681,0.613,1.754-0.068,2.397l0,0c-0.681,0.643-1.754,0.613-2.397-0.068l-5.68-6.012
					C311.73,210.966,311.761,209.893,312.441,209.25z"/>
				<polygon style="fill:#E6E6E6;" points="355.963,282.616 316.796,282.616 308.628,244.002 364.131,244.002 				"/>
				<path style="fill:#F5F5F5;" d="M360.453,250.656h-48.147c-3.675,0-6.654-2.979-6.654-6.655l0,0c0-3.675,2.979-6.654,6.654-6.654
					h48.147c3.675,0,6.655,2.979,6.655,6.654l0,0C367.108,247.677,364.128,250.656,360.453,250.656z"/>
			</g>
			<polygon style="fill:#E0E0E0;" points="290.512,382.398 306.786,297.064 320.416,297.064 295.682,382.398 			"/>
			<polygon style="fill:#E0E0E0;" points="382.248,382.398 365.975,297.064 352.344,297.064 377.078,382.398 			"/>
			<polygon style="fill:#E0E0E0;" points="352.344,382.398 340.506,297.064 326.876,297.064 347.174,382.398 			"/>
		</g>
	</g>
</g>
<g id="Background_Simple" style="display:none;">
	<g style="display:inline;">
		<path style="fill:#407BFF;" d="M221.672,191.736c68.008-11.593,225.886-89.5,214.296,38.437
			c-8.324,91.88-143.283,108.195-205.567,107.133c-79.675-1.358-176.674-64.932-170.503-165.428
			c2.471-40.241,32.635-45.891,61.814-24.419C155.955,172.654,171.574,200.275,221.672,191.736z"/>
		<path style="opacity:0.9;fill:#FFFFFF;" d="M221.672,191.736c68.008-11.593,225.886-89.5,214.296,38.437
			c-8.324,91.88-143.283,108.195-205.567,107.133c-79.675-1.358-176.674-64.932-170.503-165.428
			c2.471-40.241,32.635-45.891,61.814-24.419C155.955,172.654,171.574,200.275,221.672,191.736z"/>
	</g>
</g>
<g id="Shadow_1_">
	<ellipse id="_x3C_Path_x3E__158_" style="fill:#F5F5F5;" cx="250" cy="416.238" rx="193.889" ry="11.323"/>
</g>
<g id="Character_1">
	<g>
		<g>
			<path style="fill:#407BFF;" d="M138.39,330.333H92.651c-1.657,0-3-1.343-3-3c0-1.657,1.343-3,3-3h45.738c1.657,0,3,1.343,3,3
				C141.39,328.99,140.046,330.333,138.39,330.333z"/>
			<path style="opacity:0.8;fill:#FFFFFF;" d="M138.39,330.333H92.651c-1.657,0-3-1.343-3-3c0-1.657,1.343-3,3-3h45.738
				c1.657,0,3,1.343,3,3C141.39,328.99,140.046,330.333,138.39,330.333z"/>
		</g>
		<g>
			<g>
				<polygon style="fill:#7F3E3B;" points="179.582,407.525 186.32,404.433 183.073,387.033 176.335,390.125 				"/>
				<path style="fill:#263238;" d="M186.039,402.578l-7.57,3.474c-0.276,0.126-0.395,0.413-0.288,0.689l2.382,6.158
					c0.247,0.639,1.1,0.959,1.729,0.657c2.615-1.255,3.802-1.987,7.131-3.515c2.048-0.94,10.853-4.723,13.681-6.021
					c2.766-1.27,1.464-4.057,0.149-3.761c-5.895,1.331-13.275,2.821-15.863,2.2C186.923,402.348,186.442,402.393,186.039,402.578z"
					/>
				<g>
					<polygon style="opacity:0.2;" points="176.334,390.131 183.075,387.037 184.745,396.008 178.005,399.101 					"/>
				</g>
				<path style="fill:#263238;" d="M132.057,295.628c0,0,57.684,4.129,55.356,25.261c-3.346,30.374-0.596,68.796-0.596,68.796
					l-12.555,5.171c0,0-11.042-42.805-8.068-66.472c-14.394-5.968-53.418-0.253-58.002-12.681
					c-3.75-10.167-1.722-20.076-1.722-20.076H132.057z"/>
				<path style="opacity:0.3;" d="M160.162,313.22c0,0-1.4,6.28-2.36,13.1c0.04,0.01,0.09,0.01,0.13,0.02c0.5,0.07,1,0.15,1.48,0.23
					c0.25,0.05,0.51,0.09,0.75,0.14c0.29,0.05,0.57,0.11,0.85,0.16c1.23,0.25,2.38,0.54,3.43,0.88c0.27,0.08,0.52,0.17,0.77,0.26
					c0.34,0.11,0.67,0.24,0.98,0.37c-0.34,2.71-0.5,5.67-0.51,8.79C174.452,324.3,166.932,313.22,160.162,313.22z"/>
				<polygon style="fill:#407BFF;" points="173.125,398.99 189.375,391.533 188.328,385.551 171.624,391.662 				"/>
				<path style="fill:#407BFF;" d="M188.966,402.656c-0.622,0.286-1.37,0.473-1.906,0.583c-0.067,0.014-0.135-0.013-0.175-0.069
					c-0.04-0.056-0.043-0.129-0.008-0.188c0.147-0.248,1.456-2.428,2.427-2.482c0.225-0.013,0.422,0.082,0.57,0.277
					c0.244,0.32,0.309,0.637,0.194,0.942C189.922,402.108,189.488,402.416,188.966,402.656z M187.387,402.813
					c1.316-0.313,2.186-0.758,2.357-1.215c0.071-0.189,0.023-0.389-0.146-0.612c-0.078-0.103-0.165-0.148-0.275-0.141
					C188.801,400.875,187.941,401.957,187.387,402.813z"/>
				<path style="fill:#407BFF;" d="M187.097,403.227c-0.024,0.011-0.052,0.017-0.08,0.016c-0.059-0.003-0.113-0.036-0.142-0.088
					c-0.044-0.079-1.085-1.948-0.706-2.915c0.102-0.261,0.293-0.437,0.565-0.525c0.327-0.105,0.607-0.029,0.787,0.214
					c0.493,0.664,0.133,2.531-0.354,3.239C187.15,403.194,187.125,403.214,187.097,403.227z M186.765,400.073
					c-0.13,0.06-0.221,0.156-0.274,0.293c-0.227,0.577,0.227,1.712,0.54,2.343c0.359-0.764,0.537-2.139,0.214-2.574
					c-0.061-0.083-0.163-0.169-0.404-0.091C186.813,400.052,186.788,400.062,186.765,400.073z"/>
			</g>
			<path style="fill:#803E3C;" d="M134.871,235.513l7.002,20.301c1.183,3.373,2.367,6.744,3.587,10.075
				c1.237,3.321,2.469,6.647,3.809,9.812l-0.327-0.598c-0.202-0.304-0.611-0.787-1.315-1.156c-0.691-0.381-1.55-0.464-1.986-0.412
				c-0.913,0.127-0.881,0.31-0.778,0.249c0.273-0.077,0.959-0.559,1.572-1.091c1.277-1.111,2.649-2.504,3.955-3.955
				c1.329-1.447,2.639-2.97,3.952-4.508l3.941-4.64l4.774,2.863c-0.83,2.007-1.762,3.877-2.723,5.789
				c-0.983,1.89-2.041,3.747-3.197,5.593c-1.187,1.834-2.406,3.665-4.026,5.493c-0.847,0.92-1.689,1.849-3.176,2.855
				c-0.773,0.47-1.702,1.107-3.65,1.32c-0.949,0.098-2.337-0.089-3.479-0.719c-1.157-0.619-1.926-1.489-2.414-2.221l-0.123-0.185
				l-0.204-0.413c-1.679-3.394-3.166-6.758-4.582-10.15c-1.43-3.383-2.769-6.777-4.064-10.185c-1.31-3.401-2.546-6.822-3.752-10.252
				c-1.181-3.445-2.38-6.854-3.47-10.358L134.871,235.513z"/>
			<path style="fill:#407BFF;" d="M136.128,236.611c6.028,6.918,10.015,16.598,10.015,16.598l-15.759,9.493
				c-4.551-5.546-10.228-20.219-10.461-25.172C119.565,229.924,129.632,229.157,136.128,236.611z"/>
			<path style="opacity:0.3;" d="M130.574,243.67c3.44,2.89,5.88,8.9,6.95,14.73l-7.14,4.3c-2.25-2.74-4.78-7.71-6.79-12.65
				C125.204,245.15,127.534,241.11,130.574,243.67z"/>
			<g>
				<polygon style="fill:#7F3E3B;" points="132.803,406.944 140.217,406.944 143.612,389.776 136.199,389.776 				"/>
				<path style="fill:#263238;" d="M140.447,405.142h-8.329c-0.303,0-0.532,0.211-0.55,0.506l-0.404,6.59
					c-0.042,0.684,0.6,1.33,1.298,1.318c2.9-0.05,4.285-0.22,7.948-0.22c2.253,0,9.897,0.234,13.009,0.234
					c3.044,0,3.023-3.077,1.704-3.356c-5.913-1.25-11.306-2.973-13.399-4.617C141.346,405.301,140.89,405.142,140.447,405.142z"/>
				<g>
					<polygon style="opacity:0.2;" points="136.196,389.781 143.613,389.781 141.859,398.63 134.442,398.63 					"/>
				</g>
				<path style="fill:#263238;" d="M117.533,295.628c0,0,48.881,4.128,47.679,25.354c-1.317,23.243-20.135,75.513-20.135,75.513
					h-13.578c0,0,6.14-47.29,9.115-70.957c-13.777,0-42.361,2.594-46.945-9.833c-3.75-10.167-1.722-20.076-1.722-20.076H117.533z"/>
				<polygon style="fill:#407BFF;" points="130.039,396.494 147.919,396.494 148.944,389.444 130.278,390.278 				"/>
				<path style="fill:#407BFF;" d="M143.074,406.433c-0.685,0-1.442-0.141-1.976-0.265c-0.066-0.015-0.118-0.068-0.13-0.135
					c-0.013-0.067,0.015-0.135,0.071-0.174c0.237-0.165,2.335-1.599,3.241-1.244c0.21,0.082,0.349,0.251,0.402,0.489
					c0.088,0.393,0.015,0.708-0.216,0.938C144.172,406.334,143.649,406.433,143.074,406.433z M141.574,405.918
					c1.326,0.264,2.303,0.223,2.649-0.121c0.144-0.143,0.184-0.344,0.123-0.617c-0.028-0.126-0.089-0.203-0.191-0.243
					C143.667,404.746,142.434,405.37,141.574,405.918z"/>
				<path style="fill:#407BFF;" d="M141.138,406.172c-0.027,0-0.054-0.006-0.079-0.019c-0.053-0.027-0.088-0.08-0.093-0.139
					c-0.007-0.09-0.174-2.223,0.574-2.943c0.202-0.194,0.448-0.275,0.732-0.241c0.341,0.041,0.564,0.227,0.626,0.523
					c0.171,0.809-0.935,2.356-1.673,2.796C141.199,406.165,141.169,406.172,141.138,406.172z M142.151,403.168
					c-0.144,0-0.266,0.05-0.371,0.152c-0.447,0.43-0.507,1.651-0.487,2.355c0.645-0.544,1.38-1.72,1.268-2.251
					c-0.021-0.101-0.078-0.221-0.33-0.251C142.204,403.169,142.177,403.168,142.151,403.168z"/>
			</g>
			<path style="fill:#7F3E3B;" d="M157.209,262.114l2.298-8.228l7.414,4.893c0,0-4.036,7.126-6.508,6.543L157.209,262.114z"/>
			<polygon style="fill:#7F3E3B;" points="166.384,250.551 170.249,255.002 166.92,258.779 159.507,253.885 			"/>
			<path style="fill:#407BFF;" d="M132.012,296.007h-39.65c-0.28-3.54,0.54-15.06-0.07-29.73c-0.41-9.85-1.47-21.12-3.94-32.34
				c-0.18-0.8-0.36-1.59-0.55-2.39c0,0,2.01-0.41,4.89-0.83c2.39-0.35,5.39-0.71,8.33-0.85c5.06-0.24,12.39-0.4,16.85,0
				c2.59,0.24,5.12,0.67,7.14,1.06c2.58,0.52,4.1,0.965,4.1,0.965S138.882,254.317,132.012,296.007z"/>
			<path style="opacity:0.3;" d="M92.293,266.28c-0.41-9.85-1.47-21.12-3.94-32.34c2.65-0.23,7.18,0.03,7.93,4.31
				C97.093,242.85,96.073,253.67,92.293,266.28z"/>
			<path style="fill:#803E3C;" d="M95.49,241.327c-0.873,2.471-1.813,5.131-2.639,7.725c-0.843,2.612-1.654,5.229-2.395,7.848
				c-1.484,5.218-2.753,10.526-3.241,15.508l-0.069,0.919l-0.036,0.461c-0.013,0.104-0.025,0.46-0.031,0.186
				c-0.033-0.244-0.118-0.852-0.638-1.583c-0.514-0.736-1.326-1.15-1.68-1.237c-0.384-0.107-0.487-0.078-0.491-0.06
				c0.028,0.013,0.138,0.034,0.317,0.021c0.345-0.012,0.853-0.095,1.388-0.22c2.196-0.542,4.759-1.524,7.229-2.584
				c4.989-2.14,10.068-4.625,15.064-7.082l3.066,4.646c-4.507,3.697-9.148,7.052-14.232,10.087c-2.58,1.489-5.155,2.945-8.371,4.084
				c-0.821,0.281-1.689,0.546-2.745,0.737c-0.52,0.096-1.118,0.168-1.798,0.185c-0.71,0.002-1.524-0.038-2.583-0.364
				c-1.027-0.299-2.466-1.119-3.386-2.439c-0.932-1.315-1.183-2.642-1.252-3.586c-0.042-0.627-0.019-0.625-0.026-0.874l0.001-0.601
				l0.004-1.203c0.076-3.165,0.397-6.218,0.904-9.166c0.48-2.96,1.102-5.86,1.818-8.708c0.715-2.853,1.504-5.669,2.404-8.444
				c0.915-2.793,1.806-5.493,2.942-8.315L95.49,241.327z"/>
			<path style="fill:#407BFF;" d="M87.803,231.547c7.217-2.28,11.837,3.491,9.84,13.5c-1.997,10.009-6.867,18.262-6.867,18.262
				l-14.586-6.92C77.578,246.577,80.412,233.882,87.803,231.547z"/>
			<path style="fill:#7F3E3B;" d="M101.382,210.967l4.51,3.74l6.14,5.1c-0.18,0.83-0.32,1.67-0.39,2.48
				c-0.33,3.33,0.53,6.36,5.43,7.52c0,0,4.817,4.504-4.821,4.639c-9.637,0.135-11.879-4.539-11.879-4.539
				C104.043,226.287,102.632,216.397,101.382,210.967z"/>
			<path style="opacity:0.2;" d="M112.033,219.807c-0.18,0.83-0.32,1.67-0.39,2.48c-2.29-0.46-5.35-2.9-5.67-5.24
				c-0.12-0.88-0.14-1.73-0.08-2.34L112.033,219.807z"/>
			<path style="fill:#263238;" d="M119.176,205.345c1.778-4.009,0.66-9.789-2.331-11.94c-2.991-2.151-6.955-0.203-7.046,3.587
				C109.681,201.913,117.158,209.896,119.176,205.345z"/>
			<path style="fill:#7F3E3B;" d="M99.523,203.157c1.568,7.209,2.118,11.495,6.376,14.785c6.405,4.948,14.894,0.552,15.516-6.904
				c0.56-6.711-2.098-17.373-9.682-19.415C104.261,189.612,97.955,195.948,99.523,203.157z"/>
			<path style="fill:#263238;" d="M102.581,208.779c2.286-3.743,1.931-9.619-0.753-12.142c-2.685-2.523-6.869-1.109-7.454,2.637
				C93.615,204.137,99.986,213.028,102.581,208.779z"/>
			<g>
				<path style="fill:#263238;" d="M105.374,197.896c-0.556,1.762-2.436,2.74-4.198,2.183c-1.762-0.556-2.74-2.436-2.183-4.198
					c0.556-1.762,2.436-2.74,4.198-2.183C104.953,194.255,105.93,196.134,105.374,197.896z"/>
				<path style="fill:#263238;" d="M102.541,195.523c-0.493,1.561-2.158,2.427-3.719,1.934c-1.561-0.493-2.427-2.158-1.934-3.719
					s2.158-2.427,3.719-1.934S103.034,193.962,102.541,195.523z"/>
				<path style="fill:#263238;" d="M107.572,195c-0.497,1.575-2.177,2.448-3.752,1.951c-1.575-0.497-2.448-2.177-1.951-3.752
					s2.177-2.448,3.752-1.951C107.195,191.745,108.069,193.425,107.572,195z"/>
				<path style="fill:#263238;" d="M101.631,191.712c-0.653,2.067-2.858,3.214-4.925,2.561c-2.067-0.653-3.214-2.858-2.561-4.925
					c0.653-2.067,2.858-3.214,4.925-2.561C101.137,187.44,102.284,189.645,101.631,191.712z"/>
				<path style="fill:#263238;" d="M107.524,189.649c-0.666,2.109-2.915,3.278-5.023,2.613c-2.109-0.666-3.278-2.915-2.613-5.023
					c0.666-2.109,2.915-3.278,5.023-2.613C107.02,185.292,108.19,187.541,107.524,189.649z"/>
				<path style="fill:#263238;" d="M112.715,188.275c-0.666,2.109-2.915,3.278-5.023,2.613c-2.109-0.666-3.278-2.915-2.613-5.023
					c0.666-2.109,2.915-3.278,5.023-2.613C112.212,183.917,113.381,186.166,112.715,188.275z"/>
				<path style="fill:#263238;" d="M118.763,188.285c-0.671,2.127-2.94,3.306-5.066,2.635c-2.127-0.672-3.306-2.94-2.635-5.066
					c0.672-2.127,2.94-3.306,5.066-2.635C118.255,183.89,119.434,186.158,118.763,188.285z"/>
				<path style="fill:#263238;" d="M98.773,195.931c-0.601,1.903-2.63,2.958-4.533,2.357c-1.903-0.601-2.958-2.63-2.357-4.533
					c0.601-1.903,2.63-2.958,4.533-2.357S99.374,194.028,98.773,195.931z"/>
				<path style="fill:#263238;" d="M110.989,192.646c-0.541,1.715-2.371,2.667-4.086,2.125c-1.715-0.541-2.667-2.371-2.125-4.086
					c0.541-1.715,2.371-2.666,4.086-2.125C110.579,189.102,111.53,190.931,110.989,192.646z"/>
				<path style="fill:#263238;" d="M114.978,192.351c-0.46,1.457-2.014,2.265-3.472,1.805c-1.457-0.46-2.265-2.014-1.805-3.471
					c0.46-1.457,2.014-2.265,3.471-1.805C114.63,189.34,115.438,190.894,114.978,192.351z"/>
				<path style="fill:#263238;" d="M121.102,190.204c-0.46,1.456-2.013,2.264-3.47,1.804c-1.456-0.46-2.264-2.013-1.804-3.47
					c0.46-1.456,2.013-2.264,3.47-1.804C120.754,187.194,121.562,188.747,121.102,190.204z"/>
				<path style="fill:#263238;" d="M118.631,192.463c-0.44,1.394-1.927,2.167-3.321,1.727c-1.394-0.44-2.167-1.927-1.727-3.321
					c0.44-1.394,1.927-2.167,3.321-1.727C118.298,189.582,119.071,191.069,118.631,192.463z"/>
				<path style="fill:#263238;" d="M123.562,188.91c-0.362,1.146-1.584,1.782-2.73,1.42c-1.146-0.362-1.782-1.584-1.42-2.73
					c0.362-1.146,1.584-1.781,2.73-1.42C123.288,186.542,123.924,187.764,123.562,188.91z"/>
				<path style="fill:#263238;" d="M124.648,190.92c-0.215,0.681-0.941,1.058-1.622,0.843c-0.681-0.215-1.058-0.941-0.843-1.622
					c0.215-0.681,0.941-1.058,1.622-0.843C124.486,189.513,124.863,190.239,124.648,190.92z"/>
				<path style="fill:#263238;" d="M103.067,192.526c-0.215,0.681-0.941,1.058-1.622,0.843c-0.681-0.215-1.058-0.941-0.843-1.622
					c0.215-0.681,0.941-1.058,1.622-0.843C102.904,191.12,103.282,191.846,103.067,192.526z"/>
			</g>
			<path style="fill:#7F3E3B;" d="M98.35,209.841c1.058,1.389,2.604,2.213,3.959,2.452c2.038,0.359,2.658-1.516,1.757-3.336
				c-0.811-1.639-2.849-3.8-4.733-3.333C97.475,206.085,97.14,208.253,98.35,209.841z"/>
			<path style="fill:#263238;" d="M111.869,203.816c0.091,0.591,0.48,1.033,0.868,0.987c0.388-0.046,0.629-0.563,0.538-1.154
				c-0.091-0.591-0.48-1.033-0.868-0.987C112.019,202.708,111.778,203.225,111.869,203.816z"/>
			<path style="fill:#263238;" d="M118.581,203.018c0.091,0.591,0.48,1.033,0.868,0.987c0.388-0.046,0.629-0.563,0.538-1.154
				c-0.091-0.591-0.48-1.033-0.868-0.987C118.731,201.91,118.49,202.427,118.581,203.018z"/>
			<path style="fill:#630F0F;" d="M116.536,203.256c0,0,1.409,2.869,2.803,4.216c-0.827,0.884-2.39,0.58-2.39,0.58L116.536,203.256z
				"/>
			<path style="fill:#263238;" d="M114.202,211.091c-2.356,0-3.673-1.469-3.732-1.537c-0.064-0.073-0.057-0.184,0.016-0.247
				c0.073-0.065,0.184-0.057,0.248,0.016c0.015,0.017,1.513,1.691,4.123,1.378c0.097-0.012,0.184,0.057,0.195,0.154
				c0.012,0.096-0.057,0.184-0.154,0.195C114.657,211.078,114.425,211.091,114.202,211.091z"/>
			<path style="fill:#263238;" d="M109.171,200.407c-0.056-0.013-0.11-0.039-0.156-0.08c-0.145-0.129-0.158-0.351-0.029-0.496
				c1.276-1.434,2.884-1.173,2.952-1.161c0.183,0.014,0.319,0.214,0.286,0.406c-0.033,0.191-0.215,0.319-0.405,0.286
				c-0.067-0.01-1.305-0.19-2.307,0.937C109.423,200.397,109.292,200.434,109.171,200.407z"/>
			<path style="fill:#263238;" d="M120.978,200.021c-0.108,0.031-0.229,0.01-0.322-0.067c-1.228-1.021-2.491-0.684-2.503-0.68
				c-0.187,0.053-0.381-0.056-0.433-0.243c-0.052-0.186,0.056-0.379,0.241-0.432c0,0,0.001,0,0.002-0.001
				c0.066-0.018,1.633-0.438,3.141,0.816c0.149,0.124,0.17,0.346,0.046,0.494C121.104,199.965,121.043,200.003,120.978,200.021z"/>
			<path style="fill:#7F3E3B;" d="M106.791,262.054l2.599-6.328l5.485,5.84c0,0-2.656,6.192-5.735,4.558L106.791,262.054z"/>
			<polygon style="fill:#7F3E3B;" points="116.224,251.477 119.269,256.521 114.874,261.565 109.39,255.725 			"/>
		</g>
	</g>
</g>
<g id="Character_2">
	<g>
		<g>
			<circle style="fill:#263238;" cx="278.245" cy="188.553" r="8.737"/>
			<path style="fill:#263238;" d="M280.271,197.54c-4.956,0-8.987-4.032-8.987-8.987c0-4.956,4.032-8.987,8.987-8.987
				c4.956,0,8.987,4.032,8.987,8.987C289.259,193.508,285.227,197.54,280.271,197.54z M280.271,180.065
				c-4.68,0-8.487,3.807-8.487,8.487s3.807,8.487,8.487,8.487c4.68,0,8.487-3.807,8.487-8.487S284.951,180.065,280.271,180.065z"/>
			<path style="fill:#263238;" d="M260.905,202.585c-4.956,0-8.987-4.032-8.987-8.987c0-4.956,4.032-8.987,8.987-8.987
				c4.956,0,8.987,4.032,8.987,8.987C269.892,198.553,265.86,202.585,260.905,202.585z M260.905,185.11
				c-4.68,0-8.487,3.807-8.487,8.487c0,4.68,3.807,8.487,8.487,8.487c4.68,0,8.487-3.807,8.487-8.487
				C269.392,188.918,265.585,185.11,260.905,185.11z"/>
			<circle style="fill:#263238;" cx="261.765" cy="193.406" r="8.946"/>
			<path style="fill:#263238;" d="M253.086,179.858c-1.13,5.139,2.648,14.18,6.569,14.636s4.684-9.306,1.287-13.576
				C257.544,176.647,253.907,176.123,253.086,179.858z"/>
			<path style="fill:#FF8B7B;" d="M260.422,218.818c0.472,2.83,0.715,5.484,0.93,8.234c0.178,2.731,0.247,5.472,0.212,8.225
				c-0.081,5.506-0.652,11.053-2.16,16.609c-1.557,5.305-3.413,10.252-5.345,15.242l-2.972,7.419
				c-1.045,2.452-2.06,4.908-3.167,7.341l-3.516-1.278l2.166-7.647l2.212-7.62l2.16-7.604c0.718-2.52,1.398-5.065,1.97-7.521
				c1.092-4.739,1.274-9.86,1.22-14.944c-0.024-2.55-0.163-5.111-0.373-7.668c-0.173-2.539-0.477-5.163-0.791-7.578L260.422,218.818
				z"/>
			<path style="fill:#407BFF;" d="M253.414,211.18c-2.797,1.431-2.097,14.119-2.097,14.119l13.108,5.141
				c0,0,1.379-15.543-1.646-18.288C259.628,209.293,257.496,209.092,253.414,211.18z"/>
			<polygon style="opacity:0.2;" points="254.302,213.847 254.82,226.679 260.127,228.752 			"/>
			<path style="fill:#FF8B7B;" d="M245.836,278.708l-8.336,3.4l6.423,3.4c0,0,4.274-2.055,4.408-5.123L245.836,278.708z"/>
			<polygon style="fill:#FF8B7B;" points="269.006,406.028 261.62,406.028 260.37,388.923 267.757,388.923 			"/>
			<polygon style="fill:#FF8B7B;" points="310.021,395 302.775,396.433 297.126,380.113 304.372,378.68 			"/>
			<path style="fill:#263238;" d="M301.707,395.181l7.813-2.797c0.284-0.102,0.586,0.013,0.725,0.276l3.103,5.862
				c0.322,0.608-0.012,1.412-0.672,1.636c-2.741,0.928-4.11,1.238-7.546,2.469c-2.114,0.757-6.127,2.986-9.046,4.031
				c-2.855,1.022-4.108-1.786-2.986-2.482c5.03-3.123,6.316-5.952,7.6-8.151C300.929,395.628,301.291,395.329,301.707,395.181z"/>
			<path style="fill:#263238;" d="M261.067,405.173h8.298c0.302,0,0.547,0.21,0.589,0.504l0.946,6.566
				c0.098,0.681-0.488,1.326-1.184,1.313c-2.893-0.05-4.287-0.22-7.937-0.22c-2.245,0-6.889,0.233-9.989,0.233
				c-3.032,0-3.265-3.066-1.975-3.343c5.788-1.245,8.066-2.962,10.017-4.6C260.184,405.331,260.626,405.173,261.067,405.173z"/>
			<g style="opacity:0.2;">
				<polygon points="260.372,388.927 261.051,398.24 268.44,398.24 267.762,388.927 				"/>
				<polygon points="304.376,378.685 297.127,380.118 300.277,389.208 307.451,387.557 				"/>
			</g>
			<path style="fill:#407BFF;" d="M253.414,211.18c0,0-3.157,1.988,13.322,42.689c11.608-2.638,23.604-5.365,29.253-6.648
				c-3.197-11.794-4.879-19.132-4.742-44.859c0,0-6.432,0.06-12.794,1.187c-4.977,0.882-9.045,1.641-13.283,3.019
				C259.583,208.385,253.414,211.18,253.414,211.18z"/>
			<path style="opacity:0.2;" d="M291.24,206.33c-2.22,1.47-4.16,4.25-4.73,6.87c-0.77,3.53,4.13,9.49,5.28,10.82
				C291.44,219.29,291.26,213.61,291.24,206.33z"/>
			<path style="fill:#FF8B7B;" d="M274.102,190.495c0.133,4.464,0.712,10.881,4.351,13.054c0,0-2.228,8.477-9.087,14.357
				c-7.002-3.389-4.196-11.337-4.196-11.337c4.507-2.221,3.945-4.125,2.36-7.258L274.102,190.495z"/>
			<path style="opacity:0.2;" d="M271.423,194.091l-3.89,5.215c0.378,0.741,0.714,1.502,0.945,2.265
				c1.761-0.677,4.272-2.879,4.213-4.948C272.664,195.643,271.679,194.499,271.423,194.091z"/>
			<path style="fill:#FF8B7B;" d="M273.589,179.709c2.187,6.997,3.262,9.912,1.147,14.737c-3.181,7.259-12.254,8.415-16.487,2.212
				c-3.81-5.583-6.746-16.087-1.092-21.359C262.728,170.105,271.402,172.712,273.589,179.709z"/>
			<g>
				<path style="fill:#407BFF;" d="M266.736,253.869c0,0-16.796,42.779-16.312,65.304c0.504,23.429,9.089,76.864,9.089,76.864h9.988
					c0,0-1.581-52.066-0.698-75.076c0.962-25.085,19.354-71.961,19.354-71.961L266.736,253.869z"/>
				<path style="opacity:0.5;" d="M266.736,253.869c0,0-16.796,42.779-16.312,65.304c0.504,23.429,9.089,76.864,9.089,76.864h9.988
					c0,0-1.581-52.066-0.698-75.076c0.962-25.085,19.354-71.961,19.354-71.961L266.736,253.869z"/>
			</g>
			<polygon style="fill:#263238;" points="270.366,396.395 258.647,396.395 257.788,392.657 270.911,392.199 			"/>
			<path style="opacity:0.2;" d="M274.4,266.99c-5.72,10.13-5.21,26.65-3.67,39.1c2.29-11.69,6.19-24.79,9.73-35.49
				C279.66,263.89,277.91,260.78,274.4,266.99z"/>
			<g>
				<path style="fill:#407BFF;" d="M274.461,252.113c0,0-3.978,46.789,1.154,65.78c6.093,22.547,22.345,69.307,22.345,69.307
					l9.881-1.954c0,0-8.041-53.945-12.7-65.823c-9.942-25.351,12.261-57.832,0.847-72.202L274.461,252.113z"/>
				<path style="opacity:0.5;" d="M274.461,252.113c0,0-3.978,46.789,1.154,65.78c6.093,22.547,22.345,69.307,22.345,69.307
					l9.881-1.954c0,0-8.041-53.945-12.7-65.823c-9.942-25.351,12.261-57.832,0.847-72.202L274.461,252.113z"/>
			</g>
			<polygon style="fill:#263238;" points="309.082,385.538 296.824,387.962 294.756,384.367 309.048,380.864 			"/>
			<path style="fill:#263238;" d="M263.378,185.682c0.212,0.557,0.089,1.12-0.275,1.259c-0.364,0.139-0.831-0.2-1.043-0.757
				c-0.212-0.557-0.089-1.12,0.275-1.259C262.699,184.786,263.166,185.125,263.378,185.682z"/>
			<path style="fill:#263238;" d="M257.086,188.081c0.212,0.557,0.089,1.12-0.275,1.259c-0.364,0.139-0.831-0.2-1.043-0.757
				c-0.212-0.557-0.089-1.12,0.275-1.259C256.406,187.185,256.873,187.524,257.086,188.081z"/>
			<path style="fill:#263238;" d="M256.215,187.294l-1.484,0.124C254.731,187.418,255.815,188.201,256.215,187.294z"/>
			<path style="fill:#FF5652;" d="M259.408,188.344c0,0-0.031,2.757-0.63,4.31c0.996,0.406,2.126-0.384,2.126-0.384L259.408,188.344
				z"/>
			<path style="fill:#263238;" d="M264.772,193.292c-0.241,0.137-0.506,0.264-0.797,0.374c-0.09,0.035-0.192-0.011-0.226-0.1
				c-0.034-0.091,0.009-0.196,0.101-0.226c2.443-0.936,2.933-3.073,2.938-3.095c0.021-0.095,0.113-0.155,0.208-0.134
				c0.094,0.021,0.155,0.114,0.134,0.208C267.112,190.404,266.703,192.194,264.772,193.292z"/>
			<path style="fill:#263238;" d="M261.186,176.417c2.254,5.688,11.939,10.633,15.425,9.121c4.159-1.804,2.977-10.81-3.68-13.639
				C267.339,169.52,259.548,172.283,261.186,176.417z"/>
			<path style="fill:#263238;" d="M266.513,171.52c-2.204-2.177-15.401-1.639-16.513,4.146c-1.536,7.986,6.14,6.19,10.339,4.536
				C265.715,178.086,269.394,174.367,266.513,171.52z"/>
			<path style="fill:#FF8B7B;" d="M277.349,186.312c-0.006,1.52-0.714,2.895-1.615,3.76c-1.355,1.301-2.917,0.303-3.282-1.439
				c-0.328-1.568-0.018-4.135,1.698-4.777C275.841,183.223,277.356,184.574,277.349,186.312z"/>
			<path style="fill:#263238;" d="M264.007,183.016c-0.136,0.058-0.298,0.025-0.4-0.093c-1.062-1.221-3.137-1.026-3.158-1.024
				c-0.192,0.02-0.364-0.121-0.383-0.313c-0.02-0.192,0.118-0.364,0.313-0.383c0.1-0.01,2.459-0.231,3.757,1.261
				c0.127,0.146,0.111,0.367-0.035,0.493C264.071,182.982,264.04,183.002,264.007,183.016z"/>
			<path style="fill:#263238;" d="M253.292,185.977c-0.104,0.059-0.235,0.064-0.346,0c-0.168-0.096-0.227-0.309-0.131-0.477
				c0.957-1.682,2.569-1.799,2.636-1.802c0.193-0.012,0.359,0.135,0.37,0.328c0.012,0.193-0.135,0.357-0.327,0.371
				c-0.064,0.004-1.311,0.114-2.071,1.45C253.391,185.903,253.345,185.947,253.292,185.977z"/>
			<path style="fill:#407BFF;" d="M298.39,397.39c-0.028-0.009-0.056-0.019-0.083-0.031c-0.309-0.129-0.506-0.39-0.586-0.778
				c-0.06-0.292,0.055-0.477,0.162-0.58c0.678-0.655,3.278-0.049,3.572,0.022c0.074,0.016,0.12,0.072,0.132,0.141
				c0.012,0.069-0.018,0.138-0.077,0.176C300.71,396.86,299.267,397.668,298.39,397.39z M300.958,396.272
				c-1.047-0.212-2.476-0.364-2.833-0.019c-0.045,0.044-0.093,0.112-0.063,0.258c0.056,0.271,0.18,0.443,0.379,0.525
				C298.91,397.24,299.834,396.947,300.958,396.272z"/>
			<path style="fill:#407BFF;" d="M301.118,396.299c-0.875-0.277-2.347-1.202-2.458-1.959c-0.024-0.16-0.005-0.46,0.39-0.658
				c0.251-0.125,0.511-0.133,0.776-0.03c0.995,0.399,1.722,2.398,1.752,2.483c0.021,0.059,0.009,0.124-0.031,0.172
				c-0.04,0.047-0.102,0.07-0.164,0.059C301.304,396.353,301.215,396.33,301.118,396.299z M299.646,393.96
				c-0.152-0.048-0.295-0.036-0.439,0.035c-0.201,0.101-0.213,0.21-0.201,0.294c0.075,0.511,1.267,1.357,2.118,1.648
				c-0.277-0.653-0.835-1.722-1.428-1.96C299.679,393.971,299.662,393.965,299.646,393.96z"/>
			<path style="fill:#407BFF;" d="M258.295,406.464c-0.735,0-1.412-0.114-1.792-0.455c-0.241-0.217-0.347-0.503-0.316-0.852
				c0.019-0.208,0.122-0.369,0.297-0.465c0.907-0.499,3.85,1.008,4.182,1.181c0.066,0.034,0.103,0.106,0.092,0.18
				c-0.01,0.074-0.066,0.133-0.139,0.147C259.991,406.324,259.108,406.464,258.295,406.464z M256.978,404.935
				c-0.135,0-0.247,0.02-0.326,0.064c-0.072,0.04-0.108,0.098-0.116,0.19c-0.022,0.236,0.044,0.419,0.201,0.56
				c0.448,0.404,1.664,0.474,3.301,0.202C259.024,405.464,257.677,404.935,256.978,404.935z"/>
			<path style="fill:#407BFF;" d="M260.585,406.203c-0.025,0-0.049-0.005-0.072-0.015c-0.88-0.398-2.621-1.991-2.485-2.828
				c0.033-0.198,0.173-0.445,0.657-0.494c0.356-0.037,0.685,0.065,0.969,0.302c0.928,0.773,1.099,2.762,1.106,2.846
				c0.005,0.062-0.023,0.122-0.074,0.157C260.656,406.192,260.621,406.203,260.585,406.203z M258.825,403.209
				c-0.034,0-0.07,0.002-0.105,0.005c-0.319,0.033-0.34,0.16-0.347,0.202c-0.082,0.502,1.1,1.755,1.998,2.299
				c-0.086-0.579-0.332-1.771-0.941-2.279C259.246,403.284,259.047,403.209,258.825,403.209z"/>
			<path style="fill:#263238;" d="M262.507,184.895l-1.484,0.124C261.023,185.019,262.108,185.802,262.507,184.895z"/>
			<g>
				<path style="fill:#FFFFFF;" d="M296.037,245.404l1.343,2.448c0.148,0.18-0.045,0.442-0.383,0.518l-30.107,6.843
					c-0.264,0.06-0.512-0.02-0.566-0.182l-0.859-2.558c-0.06-0.177,0.134-0.383,0.423-0.448l29.623-6.732
					C295.728,245.244,295.941,245.289,296.037,245.404z"/>
			</g>
			<g>
				<g>
					<path style="fill:#407BFF;" d="M292.714,249.643l0.793-0.18c0.158-0.036,0.26-0.145,0.226-0.242l-1.145-3.317
						c-0.033-0.097-0.19-0.147-0.348-0.111l-0.793,0.18c-0.158,0.036-0.26,0.145-0.226,0.242l1.145,3.317
						C292.399,249.629,292.556,249.679,292.714,249.643z"/>
					<path style="opacity:0.5;" d="M292.714,249.643l0.793-0.18c0.158-0.036,0.26-0.145,0.226-0.242l-1.145-3.317
						c-0.033-0.097-0.19-0.147-0.348-0.111l-0.793,0.18c-0.158,0.036-0.26,0.145-0.226,0.242l1.145,3.317
						C292.399,249.629,292.556,249.679,292.714,249.643z"/>
				</g>
				<g>
					<path style="fill:#407BFF;" d="M269.184,254.991l0.793-0.18c0.158-0.036,0.26-0.145,0.226-0.242l-1.145-3.317
						c-0.034-0.097-0.19-0.147-0.348-0.111l-0.793,0.18c-0.158,0.036-0.26,0.145-0.226,0.242l1.145,3.317
						C268.869,254.977,269.026,255.027,269.184,254.991z"/>
					<path style="opacity:0.5;" d="M269.184,254.991l0.793-0.18c0.158-0.036,0.26-0.145,0.226-0.242l-1.145-3.317
						c-0.034-0.097-0.19-0.147-0.348-0.111l-0.793,0.18c-0.158,0.036-0.26,0.145-0.226,0.242l1.145,3.317
						C268.869,254.977,269.026,255.027,269.184,254.991z"/>
				</g>
				<g>
					<path style="fill:#407BFF;" d="M280.9,252.328l0.793-0.18c0.158-0.036,0.26-0.145,0.226-0.242l-1.145-3.317
						c-0.033-0.097-0.19-0.147-0.348-0.111l-0.793,0.18c-0.158,0.036-0.26,0.145-0.226,0.242l1.145,3.317
						C280.585,252.314,280.742,252.364,280.9,252.328z"/>
					<path style="opacity:0.5;" d="M280.9,252.328l0.793-0.18c0.158-0.036,0.26-0.145,0.226-0.242l-1.145-3.317
						c-0.033-0.097-0.19-0.147-0.348-0.111l-0.793,0.18c-0.158,0.036-0.26,0.145-0.226,0.242l1.145,3.317
						C280.585,252.314,280.742,252.364,280.9,252.328z"/>
				</g>
			</g>
			<g>
				<polygon style="fill:#FF8B7B;" points="234.667,286.889 240.564,288.349 243.923,285.508 237.5,282.108 				"/>
			</g>
			<path style="fill:#FF8B7B;" d="M281.678,238.488l-5.747-5.536l-0.499,7.495c0,0,3.994,2.558,6.675,1.061L281.678,238.488z"/>
			<path style="fill:#FF8B7B;" d="M296.036,209.179c0.262,0.335,0.397,0.524,0.575,0.771l0.482,0.691
				c0.3,0.46,0.59,0.921,0.866,1.381c0.555,0.921,1.071,1.848,1.561,2.783c0.946,1.886,1.795,3.797,2.545,5.735
				c0.762,1.934,1.402,3.906,1.973,5.887c0.295,0.989,0.534,1.991,0.786,2.987l0.094,0.374l0.113,0.48
				c0.094,0.411,0.157,0.856,0.178,1.316c0.048,0.921-0.104,1.93-0.456,2.823c-0.729,1.821-2.008,2.943-3.121,3.699
				c-1.146,0.765-2.258,1.245-3.349,1.634c-2.182,0.741-4.272,1.146-6.355,1.395c-4.162,0.497-8.181,0.55-12.289,0.227l-0.009-3.741
				c1.878-0.23,3.83-0.467,5.716-0.803c1.897-0.299,3.775-0.657,5.585-1.119c1.798-0.475,3.575-0.983,5.073-1.693
				c0.74-0.347,1.423-0.73,1.885-1.119c0.482-0.384,0.652-0.74,0.612-0.789c-0.008-0.033-0.021-0.024-0.039-0.088l-0.242-0.719
				c-0.304-0.899-0.601-1.8-0.937-2.685c-0.617-1.79-1.36-3.522-2.082-5.251c-0.733-1.725-1.553-3.402-2.429-5.023
				c-0.425-0.816-0.869-1.618-1.332-2.391c-0.231-0.389-0.467-0.763-0.705-1.133l-0.347-0.537l-0.293-0.431L296.036,209.179z"/>
			<path style="fill:#407BFF;" d="M291.247,202.362c3.133,0.225,8.947,9.517,8.947,9.517l-8.902,9.639c0,0-6.682-6.407-6.311-10.475
				C285.366,206.806,287.672,202.105,291.247,202.362z"/>
			<polygon style="fill:#FF8B7B;" points="269.754,232.314 269.676,238.612 275.432,240.446 275.931,232.951 			"/>
		</g>
	</g>
</g>
<g id="Character_3">
	<g>
		<g>
			<path style="fill:#407BFF;" d="M390.482,330.333h-45.738c-1.657,0-3-1.343-3-3c0-1.657,1.343-3,3-3h45.738c1.657,0,3,1.343,3,3
				C393.482,328.99,392.139,330.333,390.482,330.333z"/>
			<path style="opacity:0.8;fill:#FFFFFF;" d="M390.482,330.333h-45.738c-1.657,0-3-1.343-3-3c0-1.657,1.343-3,3-3h45.738
				c1.657,0,3,1.343,3,3C393.482,328.99,392.139,330.333,390.482,330.333z"/>
		</g>
		<g>
			<g>
				<polygon style="fill:#FFB573;" points="331.371,406.944 323.958,406.944 319.651,389.776 327.065,389.776 				"/>
				<path style="fill:#263238;" d="M323.439,405.142h8.329c0.303,0,0.532,0.211,0.55,0.506l0.404,6.59
					c0.042,0.684-0.599,1.33-1.298,1.318c-2.9-0.05-4.285-0.22-7.948-0.22c-2.253,0-11.833,0.234-14.945,0.234
					c-3.043,0-3.023-3.077-1.704-3.356c5.913-1.25,13.242-2.973,15.335-4.617C322.54,405.301,322.996,405.142,323.439,405.142z"/>
				<g>
					<polygon style="opacity:0.2;" points="327.068,389.781 319.651,389.781 321.875,398.63 329.291,398.63 					"/>
				</g>
				<path style="fill:#407BFF;" d="M351.077,295.628c0,0-60.326,4.128-59.124,25.354c1.317,23.243,26.69,75.513,26.69,75.513h13.579
					c0,0-12.307-44.443-15.281-68.11c14.394-5.968,53.418-0.253,58.002-12.681c3.75-10.167,1.722-20.076,1.722-20.076H351.077z"/>
				<path style="opacity:0.3;" d="M317.68,333.57c-0.17-1.06-0.32-2.1-0.46-3.1c-0.1-0.71-0.2-1.41-0.28-2.09
					c2.26-0.94,5.14-1.59,8.39-2.06c-0.96-6.82-2.36-13.1-2.36-13.1c-7.04,0-14.89,11.97-4.41,25.48c-0.17-0.92-0.33-1.83-0.48-2.73
					C317.94,335.16,317.81,334.35,317.68,333.57z"/>
				<polygon style="fill:#263238;" points="333.68,396.494 315.801,396.494 314.257,390.62 331.987,389.208 				"/>
				<path style="fill:#407BFF;" d="M320.811,406.433c0.685,0,1.442-0.141,1.976-0.265c0.066-0.015,0.118-0.068,0.13-0.135
					c0.013-0.067-0.015-0.135-0.071-0.174c-0.237-0.165-2.335-1.599-3.241-1.244c-0.21,0.082-0.349,0.251-0.402,0.489
					c-0.088,0.393-0.015,0.708,0.216,0.938C319.714,406.334,320.237,406.433,320.811,406.433z M322.312,405.918
					c-1.326,0.264-2.303,0.223-2.649-0.121c-0.143-0.143-0.184-0.344-0.122-0.617c0.028-0.126,0.089-0.203,0.191-0.243
					C320.219,404.746,321.452,405.37,322.312,405.918z"/>
				<path style="fill:#407BFF;" d="M322.748,406.172c0.027,0,0.054-0.006,0.079-0.019c0.053-0.027,0.088-0.08,0.093-0.139
					c0.007-0.09,0.174-2.223-0.574-2.943c-0.202-0.194-0.448-0.275-0.733-0.241c-0.341,0.041-0.564,0.227-0.626,0.523
					c-0.171,0.809,0.935,2.356,1.673,2.796C322.687,406.165,322.717,406.172,322.748,406.172z M321.735,403.168
					c0.144,0,0.266,0.05,0.371,0.152c0.447,0.43,0.507,1.651,0.487,2.355c-0.645-0.544-1.38-1.72-1.268-2.251
					c0.021-0.101,0.078-0.221,0.33-0.251C321.682,403.169,321.709,403.168,321.735,403.168z"/>
			</g>
			<path style="fill:#FFB573;" d="M358.844,239.286c-1.135,3.114-2.367,6.15-3.573,9.216c-1.231,3.051-2.48,6.096-3.789,9.121
				c-2.593,6.063-5.308,12.072-8.303,18.065l-0.427,0.855l-0.443,0.448c-2.165,2.189-4.635,3.98-7.218,5.378
				c-2.578,1.418-5.286,2.421-7.993,3.176c-2.717,0.735-5.452,1.195-8.18,1.418c-1.364,0.114-2.73,0.145-4.091,0.144
				c-1.385-0.003-2.672-0.059-4.169-0.231l0.11-5.565c1.052-0.164,2.311-0.375,3.464-0.61c1.176-0.24,2.339-0.539,3.487-0.849
				c2.296-0.625,4.53-1.379,6.632-2.304c2.111-0.9,4.082-1.995,5.859-3.226c1.785-1.229,3.321-2.663,4.634-4.202l-0.87,1.303
				c2.475-5.905,4.828-11.973,7.21-18.021l3.564-9.091l3.61-9.064L358.844,239.286z"/>
			<path style="fill:#263238;" d="M347.007,236.611c-6.028,6.918-10.015,16.598-10.015,16.598l15.759,9.493
				c4.551-5.546,10.228-20.219,10.461-25.172C363.569,229.924,353.502,229.157,347.007,236.611z"/>
			<path style="opacity:0.3;" d="M352.56,243.67c-3.44,2.89-5.88,8.9-6.95,14.73l7.14,4.3c2.25-2.74,4.78-7.71,6.79-12.65
				C357.93,245.15,355.6,241.11,352.56,243.67z"/>
			<g>
				<polygon style="fill:#FFB573;" points="360.631,402.287 353.415,403.987 346.171,388.056 353.387,386.355 				"/>
				<path style="fill:#263238;" d="M352.179,402.041l7.816-2.878c0.284-0.105,0.572,0.014,0.691,0.285l2.656,6.044
					c0.275,0.627-0.146,1.358-0.762,1.686c-2.561,1.361-4.036,1.455-7.534,2.539c-1.541,0.478-5.49,3.748-10.045,3.748
					c-1.782,0-2.986,0-3.973,0c-2.361,0-2.673-2.527-1.371-2.875c6.336-1.694,10.085-5.414,11.482-7.68
					C351.39,402.501,351.763,402.194,352.179,402.041z"/>
				<g>
					<polygon style="opacity:0.2;" points="353.39,386.359 346.172,388.061 349.909,396.272 357.128,394.57 					"/>
				</g>
				<path style="fill:#407BFF;" d="M365.601,295.628c0,0-48.881,4.128-47.679,25.354c1.317,23.243,28.364,73.949,28.364,73.949
					l13.216-3.115c0,0-14.007-42.612-16.982-66.279c13.777,0,42.361,2.594,46.945-9.833c3.75-10.167,1.722-20.076,1.722-20.076
					H365.601z"/>
				<polygon style="fill:#263238;" points="360.923,391.481 343.521,395.583 341.666,389.729 359.289,384.547 				"/>
				<path style="fill:#407BFF;" d="M350.159,404.161c0.642-0.237,1.305-0.631,1.762-0.931c0.057-0.037,0.087-0.105,0.076-0.172
					c-0.011-0.068-0.061-0.122-0.127-0.139c-0.279-0.073-2.744-0.694-3.471-0.047c-0.169,0.15-0.241,0.356-0.208,0.598
					c0.053,0.399,0.23,0.67,0.527,0.805C349.095,404.446,349.621,404.359,350.159,404.161z M351.389,403.158
					c-1.153,0.706-2.084,1.005-2.528,0.802c-0.184-0.084-0.291-0.26-0.328-0.537c-0.017-0.128,0.013-0.221,0.095-0.294
					C349.02,402.782,350.393,402.942,351.389,403.158z"/>
				<path style="fill:#407BFF;" d="M351.887,403.247c0.025-0.009,0.049-0.025,0.068-0.045c0.04-0.044,0.055-0.105,0.039-0.163
					c-0.024-0.087-0.605-2.146-1.556-2.564c-0.256-0.113-0.516-0.103-0.771,0.027c-0.306,0.156-0.451,0.408-0.407,0.707
					c0.119,0.818,1.691,1.888,2.536,2.046C351.827,403.261,351.858,403.258,351.887,403.247z M349.897,400.777
					c0.135-0.05,0.267-0.045,0.401,0.014c0.568,0.249,1.047,1.374,1.271,2.042c-0.793-0.288-1.89-1.137-1.968-1.674
					c-0.015-0.102-0.003-0.234,0.222-0.35C349.849,400.797,349.873,400.786,349.897,400.777z"/>
			</g>
			<path style="fill:#FFB573;" d="M312.078,281.157l-8.37-1.707l1.049,8.141c0,0,8.108,0.346,8.716-2.119L312.078,281.157z"/>
			<polygon style="fill:#FFB573;" points="297.603,284.049 299.802,289.519 304.756,287.591 303.707,279.45 			"/>
			<path style="fill:#263238;" d="M351.122,296.007h39.65c0.28-3.54-0.54-15.06,0.07-29.73c0.41-9.85,1.47-21.12,3.94-32.34
				c0.18-0.8-0.19-1.387,0-2.187c0,0-1.46-0.613-4.34-1.033c-2.39-0.35-5.39-0.71-8.33-0.85c-5.06-0.24-12.39-0.4-16.85,0
				c-2.59,0.24-5.12,0.67-7.14,1.06c-2.58,0.52-4.1,0.965-4.1,0.965S344.252,254.317,351.122,296.007z"/>
			<path style="opacity:0.3;" d="M390.841,266.28c0.41-9.85,1.47-21.12,3.94-32.34c-2.65-0.23-7.18,0.03-7.93,4.31
				C386.042,242.85,387.061,253.67,390.841,266.28z"/>
			<path style="fill:#FFB573;" d="M398.123,237.269c1.164,2.889,2.072,5.656,3.007,8.518c0.909,2.847,1.729,5.727,2.441,8.657
				c0.722,2.925,1.36,5.89,1.816,8.942c0.257,1.509,0.422,3.075,0.6,4.624c0.103,1.593,0.237,3.16,0.206,4.825l0.001,1.23
				c-0.009,0.813-0.175,1.857-0.458,2.628c-0.57,1.613-1.421,2.717-2.207,3.574c-1.615,1.667-3.166,2.599-4.672,3.447
				c-3.004,1.637-5.936,2.635-8.855,3.558c-5.861,1.75-11.647,2.84-17.619,3.52l-1.149-5.446c2.649-0.926,5.381-1.872,8.018-2.893
				c2.65-1.006,5.272-2.04,7.782-3.181c2.507-1.107,4.947-2.364,6.933-3.693c0.967-0.652,1.823-1.401,2.158-1.89
				c0.172-0.224,0.151-0.349,0.039-0.114c-0.031,0.063-0.05,0.135-0.079,0.237c-0.006,0.045-0.016,0.097-0.028,0.154l-0.008,0.083
				c-0.002,0.023,0.001,0.084-0.004,0.015l-0.074-0.943c-0.171-2.499-0.616-5.155-1.181-7.815c-0.561-2.657-1.242-5.345-2.005-8.025
				c-0.751-2.681-1.579-5.364-2.443-8.038c-0.842-2.658-1.804-5.383-2.699-7.916L398.123,237.269z"/>
			<path style="fill:#263238;" d="M394.781,231.75c-7.217-2.28-11.287,3.288-9.29,13.297c1.997,10.009,6.867,18.262,6.867,18.262
				l14.586-6.92C405.556,246.577,402.172,234.085,394.781,231.75z"/>
			<path style="fill:#FFB573;" d="M382.086,212.967l-4.51,3.74l-6.14,5.1c0.18,0.83,0.32,1.67,0.39,2.48
				c0.33,3.33-2.368,4.879-5.764,5.519c0,0-4.817,4.504,4.82,4.639c9.637,0.135,11.879-4.539,11.879-4.539
				C379.092,226.287,380.836,218.398,382.086,212.967z"/>
			<path style="fill:#407BFF;" d="M381.83,229.881c-1.504,1.063-5.351,3.494-10.382,4.555c1.892,1.882,3.117,6.505,3.117,6.505
				s10.469-2.448,10.816-10.925c0,0-0.758-0.358-1.729-0.542C383.015,229.353,382.359,229.507,381.83,229.881z"/>
			<path style="fill:#407BFF;" d="M366.821,230.081c-0.244,1.178,0.015,3.339,4.626,4.354c-2.848,1.643-4.065,6.033-4.065,6.033
				s-6.465-5.668-3.14-10.573c0,0,0.841-0.389,1.887-0.552C366.557,229.276,366.909,229.657,366.821,230.081z"/>
			<path style="opacity:0.2;" d="M371.436,221.807c0.18,0.83,0.32,1.67,0.39,2.48c3.806-0.58,6.268-2.823,6.588-5.163
				c0.12-0.88-0.778-1.808-0.838-2.417L371.436,221.807z"/>
			<path style="fill:#263238;" d="M365.657,210.372c-3.522-2.613-5.397-8.194-3.853-11.539c1.543-3.345,5.952-3.603,7.898-0.35
				C372.229,202.708,369.656,213.339,365.657,210.372z"/>
			<path style="fill:#FFB573;" d="M382.395,203.411c0.068,7.377,0.48,11.679-2.943,15.83c-5.15,6.244-14.401,3.837-16.659-3.296
				c-2.032-6.421-1.802-17.406,5.142-21.077C374.775,191.251,382.328,196.033,382.395,203.411z"/>
			<path style="fill:#263238;" d="M379.846,209.278c-2.656-3.49-2.903-9.372-0.49-12.156c2.413-2.783,6.72-1.804,7.684,1.862
				C388.291,203.745,382.861,213.24,379.846,209.278z"/>
			<g>
				<path style="fill:#407BFF;" d="M363.537,197.729c-2.23-1.342,2.926-5.867,9.604-7.848c7.46-2.213,16.892,3.585,17.348,8.62
					c0.479,5.302-3.101,2.715-3.663,4.38C386.826,202.881,368.106,200.478,363.537,197.729z"/>
				<g>
					<path style="fill:#407BFF;" d="M361.277,199.577c-0.102-0.911,0.889-2.559,1.267-2.909c0.378-0.35,22.493,4.114,24.794,6.093
						c0.434,0.374-1.117,3.533-1.459,3.123C383.458,202.98,361.367,200.379,361.277,199.577z"/>
					<path style="opacity:0.3;" d="M361.277,199.577c-0.102-0.911,0.889-2.559,1.267-2.909c0.378-0.35,22.493,4.114,24.794,6.093
						c0.434,0.374-1.117,3.533-1.459,3.123C383.458,202.98,361.367,200.379,361.277,199.577z"/>
				</g>
			</g>
			<path style="fill:#263238;" d="M384.789,207.609c0.036-0.003,0.073-0.015,0.106-0.035c0.118-0.072,0.156-0.225,0.084-0.344
				c-1.185-1.955-9.346-2.614-10.272-2.683c-0.041-0.003-3.988-0.268-7.887,0.526c-0.252-0.104-0.991-0.321-1.965,0.184
				c-0.425-0.007-2.785-0.021-5.121,0.503c-0.135,0.03-0.219,0.164-0.189,0.299c0.03,0.134,0.159,0.219,0.299,0.189
				c2.506-0.562,5.037-0.49,5.063-0.49c0.044,0.002,0.089-0.009,0.127-0.03c0.962-0.523,1.609-0.189,1.636-0.175
				c0.052,0.028,0.112,0.037,0.171,0.026c3.855-0.801,7.79-0.537,7.829-0.534c2.446,0.182,8.99,0.975,9.881,2.444
				C384.604,207.575,384.697,207.618,384.789,207.609z"/>
			<path style="fill:#263238;" d="M371.4,211.439c0.078-0.007,0.158-0.017,0.238-0.029c1.141-0.166,1.993-0.676,2.535-1.515
				c1.26-1.953,0.412-4.98,0.375-5.108c-0.019-0.067-0.088-0.105-0.155-0.086c-0.066,0.019-0.105,0.088-0.086,0.155
				c0.009,0.03,0.854,3.047-0.345,4.904c-0.501,0.775-1.295,1.248-2.361,1.403c-1,0.145-1.86-0.075-2.552-0.658
				c-1.839-1.547-1.956-5.153-1.957-5.189c-0.002-0.069-0.059-0.123-0.128-0.122c-0.069,0.003-0.124,0.059-0.122,0.128
				c0.004,0.153,0.121,3.754,2.046,5.374C369.581,211.28,370.426,211.529,371.4,211.439z"/>
			<path style="fill:#263238;" d="M362.553,212.084c0.851-0.079,1.516-0.43,1.978-1.045c1.352-1.8,0.512-5.216,0.476-5.361
				c-0.017-0.067-0.085-0.106-0.152-0.091c-0.067,0.017-0.107,0.085-0.09,0.152c0.008,0.034,0.847,3.445-0.434,5.15
				c-0.455,0.606-1.133,0.93-2.016,0.959c-0.565,0.02-1.033-0.171-1.393-0.568c-1.33-1.467-0.842-5.255-0.837-5.293
				c0.009-0.068-0.039-0.132-0.107-0.141c-0.07-0.01-0.132,0.039-0.141,0.107c-0.021,0.16-0.509,3.942,0.899,5.494
				c0.411,0.454,0.946,0.673,1.588,0.65C362.401,212.096,362.478,212.091,362.553,212.084z"/>
			<path style="fill:#FFB573;" d="M385.02,209.669c-0.724,1.588-2.049,2.735-3.317,3.268c-1.908,0.802-2.927-0.89-2.452-2.864
				c0.428-1.777,1.936-4.337,3.878-4.298C385.041,205.812,385.848,207.852,385.02,209.669z"/>
			<path style="fill:#263238;" d="M370.501,206.788c0.042,0.597-0.239,1.114-0.628,1.155s-0.738-0.41-0.78-1.007
				c-0.042-0.597,0.239-1.114,0.628-1.155C370.11,205.74,370.46,206.191,370.501,206.788z"/>
			<path style="fill:#263238;" d="M363.78,207.496c0.042,0.597-0.239,1.114-0.628,1.155c-0.389,0.041-0.738-0.41-0.78-1.007
				c-0.042-0.597,0.239-1.114,0.628-1.155C363.389,206.449,363.738,206.9,363.78,207.496z"/>
			<path style="fill:#ED893E;" d="M365.945,207.796c0,0-0.867,3.652-2.114,5.558c1.178,0.798,2.888,0.042,2.888,0.042
				L365.945,207.796z"/>
			<path style="fill:#263238;" d="M369.838,214.398c2.297-0.522,3.256-2.246,3.299-2.326c0.046-0.085,0.015-0.192-0.071-0.238
				c-0.085-0.047-0.191-0.014-0.238,0.071c-0.011,0.02-1.101,1.984-3.716,2.257c-0.097,0.01-0.166,0.096-0.156,0.193
				c0.01,0.096,0.096,0.166,0.193,0.156C369.392,214.486,369.621,214.448,369.838,214.398z"/>
			<path style="fill:#263238;" d="M373.543,203.904c0.052-0.025,0.099-0.062,0.135-0.113c0.112-0.158,0.076-0.377-0.082-0.49
				c-1.562-1.116-3.072-0.506-3.135-0.479c-0.176,0.054-0.264,0.28-0.189,0.459c0.075,0.179,0.28,0.263,0.459,0.189
				c0.063-0.025,1.231-0.475,2.457,0.402C373.295,203.95,373.431,203.957,373.543,203.904z"/>
			<path style="fill:#263238;" d="M360.779,205.104c0.112,0.006,0.225-0.041,0.299-0.137c0.972-1.268,2.277-1.218,2.29-1.218
				c0.194,0.01,0.359-0.139,0.368-0.333c0.01-0.193-0.138-0.357-0.331-0.368c-0.001,0-0.002,0-0.002,0
				c-0.069-0.003-1.69-0.066-2.883,1.492c-0.118,0.154-0.089,0.375,0.065,0.492C360.644,205.077,360.711,205.1,360.779,205.104z"/>
			<path style="fill:#FFB573;" d="M373.079,284.954l-6.132-3.034l-0.26,8.007c0,0,6.085,2.894,7.316-0.367L373.079,284.954z"/>
			<polygon style="fill:#FFB573;" points="359.01,283.246 359.121,290.34 366.687,289.928 366.947,281.92 			"/>
		</g>
	</g>
</g>
<g id="Table">
	<g>
		<g>
			<g>
				<path style="fill:#407BFF;" d="M395.4,416.238h-6V301.84c0-4.963-4.038-9-9-9H141.133c-4.963,0-9,4.037-9,9v114.398h-6V301.84
					c0-8.271,6.729-15,15-15H380.4c8.271,0,15,6.729,15,15V416.238z"/>
				<path style="opacity:0.7;fill:#FFFFFF;" d="M395.4,416.238h-6V301.84c0-4.963-4.038-9-9-9H141.133c-4.963,0-9,4.037-9,9v114.398
					h-6V301.84c0-8.271,6.729-15,15-15H380.4c8.271,0,15,6.729,15,15V416.238z"/>
			</g>
			<g>
				<path style="fill:#407BFF;" d="M373.867,416.238h-6V301.84c0-4.963-4.038-9-9-9H119.6c-4.963,0-9,4.037-9,9v114.398h-6V301.84
					c0-8.271,6.729-15,15-15h239.267c8.271,0,15,6.729,15,15V416.238z"/>
				<path style="opacity:0.8;fill:#FFFFFF;" d="M373.867,416.238h-6V301.84c0-4.963-4.038-9-9-9H119.6c-4.963,0-9,4.037-9,9v114.398
					h-6V301.84c0-8.271,6.729-15,15-15h239.267c8.271,0,15,6.729,15,15V416.238z"/>
			</g>
		</g>
		<g>
			<g>
				<path style="fill:#407BFF;" d="M243.082,284.405h-51.539c-1.471,0-2.803-1.204-2.959-2.675l-3.443-32.46
					c-0.156-1.471,0.92-2.675,2.391-2.675h51.539c1.471,0,2.803,1.204,2.959,2.675l3.443,32.46
					C245.629,283.202,244.553,284.405,243.082,284.405z"/>
				<path style="opacity:0.2;" d="M243.082,284.405h-51.539c-1.471,0-2.803-1.204-2.959-2.675l-3.443-32.46
					c-0.156-1.471,0.92-2.675,2.391-2.675h51.539c1.471,0,2.803,1.204,2.959,2.675l3.443,32.46
					C245.629,283.202,244.553,284.405,243.082,284.405z"/>
			</g>
			<rect x="204.627" y="243.096" style="fill:#407BFF;" width="4.167" height="1"/>
			<rect x="191.377" y="243.096" style="fill:#407BFF;" width="9.667" height="1"/>
			<path style="fill:#407BFF;" d="M241.654,284.405h-51.539c-1.471,0-2.803-1.204-2.959-2.675l-3.443-32.46
				c-0.156-1.471,0.92-2.675,2.391-2.675h51.539c1.471,0,2.803,1.204,2.959,2.675l3.443,32.46
				C244.202,283.202,243.126,284.405,241.654,284.405z"/>
			<path style="fill:#407BFF;" d="M244.037,284.165h-51.539c-1.471,0-2.675,1.204-2.675,2.675h56.889
				C246.712,285.369,245.508,284.165,244.037,284.165z"/>
			<g>
				<path style="fill:#407BFF;" d="M261.674,284.165h-18.413c-1.471,0-2.675,1.204-2.675,2.675h23.763
					C264.349,285.369,263.145,284.165,261.674,284.165z"/>
				<path style="opacity:0.2;" d="M261.674,284.165h-18.413c-1.471,0-2.675,1.204-2.675,2.675h23.763
					C264.349,285.369,263.145,284.165,261.674,284.165z"/>
			</g>
		</g>
	</g>
</g>
</svg>
